<svg width="30" height="31" viewBox="0 0 30 31" fill="none" xmlns="http://www.w3.org/2000/svg">
<path d="M29.5312 15.91C29.5312 23.9354 23.0254 30.4413 15 30.4413C6.97459 30.4413 0.46875 23.9354 0.46875 15.91C0.46875 7.88462 6.97459 1.37878 15 1.37878C23.0254 1.37878 29.5312 7.88462 29.5312 15.91ZM13.3192 23.6042L24.1004 12.823C24.4665 12.4569 24.4665 11.8633 24.1004 11.4972L22.7746 10.1714C22.4085 9.80521 21.8149 9.80521 21.4488 10.1714L12.6562 18.9638L8.55123 14.8588C8.18514 14.4927 7.59152 14.4927 7.22537 14.8588L5.89957 16.1846C5.53348 16.5507 5.53348 17.1443 5.89957 17.5104L11.9933 23.6042C12.3595 23.9703 12.953 23.9703 13.3192 23.6042Z" fill="#0DB14B"/>
</svg>
