<svg width="243" height="50" viewBox="0 0 243 50" fill="none" xmlns="http://www.w3.org/2000/svg">
<path d="M27.8391 45.6622C27.8602 47.1508 27.8812 48.2343 27.9028 48.7661C27.9239 48.8354 27.9239 48.9093 27.9028 48.9786V49.1275C27.9028 49.4252 27.9448 49.7229 28.0295 49.999C28.1144 49.7163 28.1571 49.4226 28.1562 49.1275C28.1562 49.0212 28.1982 47.469 28.2619 44.9821C28.2408 45.0031 28.2192 45.0241 28.2192 45.0457C28.0715 45.2372 27.9448 45.4491 27.8391 45.6622ZM23.4449 14.6231C23.7942 14.2535 24.0925 13.8389 24.3318 13.3902C24.1631 13.7731 23.508 15.2186 24.1421 15.3464C24.8392 15.4737 25.621 15.2612 27.0363 13.4544C26.9943 11.1368 26.9517 9.11756 26.9306 7.58634H26.0642C25.642 7.58634 24.9449 7.5443 24.4801 6.84204C23.9728 6.07728 23.9517 5.29094 23.9307 4.71709C23.9097 3.88756 23.6978 2.37793 22.6631 1.52739C21.945 0.953535 20.0013 0.506954 18.2053 1.23023C17.6138 1.46375 16.4309 2.08021 15.2684 2.65463C14.2122 3.18587 12.8599 3.84495 12.4378 3.84495C13.3366 3.4282 14.2176 2.97422 15.0786 2.48418C16.2405 1.8467 17.4661 1.16603 18.0786 0.910923C19.3041 0.422297 21.6489 0.273437 22.8529 1.25182C23.9938 2.18646 24.2262 3.8029 24.2477 4.67391C24.2688 5.24776 24.2898 5.94945 24.7335 6.65113C25.1347 7.24657 25.7687 7.24657 26.1488 7.24657H26.9096V6.69375C26.2335 6.73636 25.2619 6.77897 24.8392 5.86422C24.3318 4.75913 24.8813 1.93135 23.1915 0.74104C21.5012 -0.449274 18.7967 -0.151553 16.3883 1.25126C14.0008 2.63304 10.8316 4.44039 6.92371 6.01365C3.0147 7.58634 0.585212 8.22383 0.120449 8.28803C-0.322722 8.37325 0.480101 8.67097 2.14881 8.71302C3.81809 8.75563 5.21238 8.62779 5.21238 8.62779L17.4655 3.01656C17.4655 3.01656 6.90155 8.31019 6.01464 8.88404C5.12716 9.45789 4.40899 9.64936 4.47206 10.1806C4.53569 10.7124 5.21181 10.6482 7.07086 10.6062C8.92991 10.5635 9.3316 10.3931 9.96511 10.2022C10.5992 10.0107 17.4649 6.82158 17.4649 6.82158C17.4649 6.82158 10.1128 10.4999 9.05661 11.3499C8.00039 12.2004 9.14127 12.4766 9.85944 12.4976C10.5992 12.5192 12.5639 12.4129 13.6622 11.8601C14.761 11.3073 18.1837 9.09653 18.1837 9.09653C18.1837 9.09653 14.8031 11.5414 14.1485 12.0942C13.6201 12.5408 13.3457 12.9237 13.4724 13.3908C13.6622 13.9862 14.6769 13.9226 16.0292 13.4334C16.0292 13.4334 17.4229 12.9447 17.9513 12.4766C18.4797 11.9879 19.9581 10.6698 19.9581 10.6698C19.9581 10.6698 18.2047 12.4982 17.761 13.2845C17.3382 14.0714 17.2542 14.2629 17.4655 14.7089C17.761 15.347 20.0007 14.6879 20.6342 14.0072C21.1057 13.4754 21.5433 12.9144 21.9444 12.3277C21.9444 12.3277 21.2683 13.4334 21.1205 14.0714C20.9728 14.7089 20.8035 15.2191 21.416 15.2833C22.0921 15.3896 22.7256 15.4106 23.4444 14.6243L23.4449 14.6231ZM27.6278 29.1012L27.8181 28.9734C27.9448 28.8881 28.0505 28.8245 28.1352 28.7398C28.3039 28.6336 28.4732 28.5058 28.642 28.3995C28.663 27.1876 28.7056 25.9547 28.7266 24.7428C28.3705 24.5865 28.0111 24.4376 27.6488 24.2962C27.6278 24.2962 27.6068 24.2752 27.5857 24.2752C27.5431 24.2541 27.5221 24.2541 27.4801 24.2326C27.2267 24.1473 26.9943 24.0411 26.7193 23.9564C26.4022 23.8286 26.0858 23.7223 25.7687 23.5951C23.6563 24.7217 23.2336 25.253 23.2336 26.295C23.2336 27.7615 24.4801 28.4205 26.6346 29.8023C26.9733 29.5472 27.3107 29.3137 27.6278 29.1012ZM25.0295 26.4859C25.0295 26.4859 24.8818 25.5507 27.2687 24.4666C27.3323 24.445 27.3954 24.403 27.459 24.3814C27.4801 25.8484 27.5011 27.3154 27.5431 28.7819C26.3602 27.9745 25.0295 27.2086 25.0295 26.4859ZM28.642 44.5355C28.5363 44.6628 28.4306 44.7906 28.3249 44.8969C28.938 45.7264 28.8954 46.5338 28.5579 47.5752C28.8743 47.2139 29.5084 46.2997 28.98 45.1094C28.8743 44.9179 28.7687 44.7264 28.642 44.5355ZM27.6704 35.8192L28.4516 36.6056L28.98 37.1368C29.001 37.1584 29.0431 37.1794 29.0857 37.222C30.522 35.9681 31.8322 34.7772 31.8322 33.2892C31.8322 32.1199 30.7129 31.0568 29.5925 30.2063C29.482 30.2699 29.3761 30.3411 29.2755 30.4193C29.0221 30.5892 28.7897 30.7375 28.5783 30.8869C28.5783 30.8869 28.5573 30.8869 28.5573 30.908C28.5153 30.9506 28.4516 30.9716 28.4096 31.0142C28.1141 31.2273 27.8391 31.4182 27.5857 31.6097C27.6278 33.0341 27.6494 34.4585 27.6704 35.8192ZM28.5789 31.1205C29.9732 32.1409 30.522 32.8 30.522 33.5233C30.522 34.2676 29.7408 35.1386 28.4732 36.4141C28.4942 34.7136 28.5363 32.9488 28.5789 31.1205ZM36.2901 10.6902C36.2901 10.6902 37.769 12.0084 38.2969 12.497C38.8253 12.9862 40.2195 13.4544 40.2195 13.4544C41.5718 13.943 42.586 14.0072 42.7763 13.4118C42.924 12.9442 42.628 12.5402 42.1002 12.1146C41.4451 11.5618 38.0645 9.11756 38.0645 9.11756C38.0645 9.11756 41.4871 11.3277 42.586 11.8811C43.6842 12.434 45.649 12.5402 46.3887 12.5186C47.1279 12.4976 48.2478 12.2209 47.1915 11.3709C46.1348 10.5204 38.7826 6.84261 38.7826 6.84261C38.7826 6.84261 45.6279 10.0528 46.2825 10.2232C46.9165 10.4141 47.3182 10.563 49.1773 10.6266C51.0363 10.6692 51.6914 10.7329 51.7761 10.2016C51.8602 9.69141 51.121 9.49993 50.2335 8.90449C49.3466 8.33064 38.7832 3.03701 38.7832 3.03701L51.0369 8.64938C51.0369 8.64938 52.4312 8.77722 54.1005 8.73461C55.7698 8.692 56.572 8.39428 56.1288 8.30962C55.6851 8.22439 53.234 7.60793 49.3256 6.03467C45.4172 4.46141 42.2485 2.67566 39.861 1.27228C37.4736 -0.109509 34.7481 -0.428252 33.0578 0.762062C31.368 1.95294 31.9175 4.75913 31.4101 5.88581C30.9879 6.79999 30.0158 6.75738 29.3397 6.71534C29.3397 6.88522 29.3397 7.07612 29.3187 7.2676H30.0999C30.48 7.2676 31.1141 7.2676 31.5152 6.67216C31.9584 5.99206 31.98 5.26878 32.001 4.69493C32.0226 3.82392 32.255 2.20805 33.3958 1.27228C34.5998 0.295596 36.944 0.44332 38.1696 0.932513C38.7821 1.16603 40.0076 1.8467 41.1695 2.50577C42.0306 2.99562 42.9116 3.44941 43.8104 3.86597C43.3672 3.86597 42.036 3.20689 40.9798 2.67566C39.8389 2.08021 38.6559 1.48534 38.0429 1.25126C36.2475 0.528545 34.3032 0.975126 33.585 1.54898C32.5282 2.39953 32.3385 3.90858 32.318 4.73754C32.2964 5.31139 32.2754 6.1199 31.768 6.86363C31.3249 7.56532 30.6271 7.60793 30.184 7.60793H29.3175C29.2755 9.13858 29.2334 11.1368 29.1914 13.4118C30.6277 15.2612 31.4516 15.4953 32.1277 15.3464C32.7618 15.2186 32.1277 13.7726 31.9379 13.3902C32.1913 13.8368 32.4868 14.2407 32.8248 14.6231C33.5225 15.41 34.1771 15.389 34.8111 15.3038C35.4447 15.2186 35.2543 14.7299 35.1066 14.0919C34.9589 13.4544 34.2827 12.3487 34.2827 12.3487C34.6892 12.9316 35.1265 13.4922 35.5929 14.0282C36.2265 14.7083 38.4662 15.389 38.7616 14.7299C38.952 14.3044 38.8883 14.0919 38.4662 13.3055C38.0645 12.5186 36.2901 10.6902 36.2901 10.6902ZM28.1562 4.18471C28.4958 4.18426 28.8273 4.08063 29.1067 3.88756C29.3841 3.69524 29.6034 3.43053 29.7408 3.12224C29.8675 2.80349 29.9095 2.46316 29.8465 2.12283C29.7828 1.78249 29.6135 1.48534 29.3812 1.23023C29.1387 0.989362 28.8299 0.826345 28.4942 0.762062C28.1562 0.698427 27.8181 0.720018 27.5011 0.868878C27.1867 0.995962 26.9204 1.21906 26.7403 1.50636C26.5482 1.78852 26.4453 2.12184 26.4449 2.46316C26.4449 2.69668 26.4869 2.90974 26.5716 3.12224C26.6562 3.33473 26.7829 3.52564 26.9522 3.67506C27.121 3.84495 27.2897 3.97222 27.5011 4.05744C27.6914 4.14267 27.9238 4.18528 28.1562 4.18528V4.18471ZM33.7754 17.1106C33.7754 17.1106 33.7333 15.9202 31.8112 15.7924C29.8465 15.6651 29.7618 16.5157 29.8039 16.8344C29.9516 16.8344 30.0783 16.877 30.0783 16.9197C30.0783 16.9623 29.9732 17.0049 29.8465 17.0049C29.9516 17.3231 30.2476 17.706 31.0925 18.131C31.7902 18.4719 32.1277 18.4503 32.5294 18.3867C32.5294 18.3867 32.9941 18.6628 32.9941 19.1094C32.9941 19.5344 32.255 20.3633 28.7897 22.1065C29.001 12.7101 29.1914 4.46141 29.1914 4.46141H29.4027C29.4911 4.4577 29.5745 4.41957 29.6351 4.35516C29.6994 4.29379 29.7373 4.20986 29.7408 4.12108V4.01483C29.7408 3.97222 29.7408 3.9296 29.7192 3.88756C29.6982 3.84495 29.6772 3.80233 29.6351 3.78131C29.4513 3.99165 29.229 4.16484 28.98 4.29153C28.7266 4.4188 28.4516 4.46198 28.1772 4.46198C27.9028 4.46198 27.6278 4.39778 27.3744 4.29153C27.1176 4.17761 26.8926 4.00242 26.7193 3.78131C26.685 3.81129 26.6565 3.8473 26.6352 3.88756C26.6136 3.93017 26.6136 3.97279 26.6136 4.01483V4.12108C26.6136 4.2063 26.6562 4.29153 26.7193 4.35516C26.7829 4.4188 26.867 4.46141 26.9522 4.46141H27.163C27.163 4.46141 27.3107 12.476 27.4585 21.7025L28.3886 22.1707C28.4306 22.1917 28.4942 22.2133 28.5363 22.2343C29.3181 22.6167 29.9732 22.936 30.522 23.2337C32.3817 22.5104 34.1981 21.6815 34.7475 20.5122C35.7191 18.3441 33.7754 17.1106 33.7754 17.1106ZM31.1982 16.6219C30.9874 16.6219 30.8181 16.5157 30.8181 16.3878C30.8181 16.2606 30.9868 16.1543 31.1987 16.1543C31.4095 16.1543 31.5788 16.2606 31.5788 16.3878C31.5788 16.5157 31.4095 16.6219 31.1982 16.6219ZM27.8391 43.5361C28.0079 43.3236 28.1562 43.1111 28.3249 42.9196C28.3459 41.7077 28.3886 40.347 28.4096 38.88C28.1982 38.668 27.9664 38.455 27.7124 38.2209C27.6278 38.1578 27.5647 38.0726 27.4795 38.009C27.3744 37.9021 27.2687 37.8175 27.163 37.7323C26.5716 38.2851 25.4097 39.518 25.4097 40.5811C25.4097 41.8356 26.6142 43.1111 27.5221 44.0253C27.6026 43.8474 27.7095 43.6821 27.8391 43.5361ZM27.7124 38.4766C27.7545 40.2833 27.7755 41.9418 27.7971 43.3662C27.1 42.4304 26.3602 41.4742 26.3602 40.8151C26.3602 40.1987 26.7193 39.497 27.7124 38.4766ZM28.1982 22.4468C24.079 20.4485 23.2336 19.5344 23.2336 19.0878C23.2336 18.6412 23.6983 18.3651 23.6983 18.3651C24.0995 18.4503 24.4375 18.4503 25.1347 18.11C25.9801 17.7066 26.2755 17.302 26.3812 16.9833C26.2545 16.9833 26.1488 16.9407 26.1488 16.8981C26.1488 16.8554 26.2755 16.8128 26.4238 16.8128V16.7918C26.4449 16.4731 26.3386 15.6441 24.3955 15.7714C22.4728 15.8992 22.4307 17.0895 22.4307 17.0895C22.4307 17.0895 20.487 18.3441 21.5012 20.4701C22.3881 22.3621 26.5505 23.361 28.959 24.445C31.3465 25.5297 31.1982 26.4649 31.1982 26.4649C31.1982 27.2728 29.5925 28.1234 28.3249 29.016C27.0579 29.9091 24.3744 31.4608 24.3744 33.2892C24.3744 34.9687 26.0432 36.2652 27.6698 37.7112C29.3175 39.1567 29.8459 40.0282 29.8459 40.8362C29.8459 41.9418 28.0295 43.4299 27.1 45.2792C26.1699 47.1292 28.0079 49.999 27.4374 48.4894C26.8466 46.9803 27.163 45.9173 27.9238 44.8543C28.8533 43.5577 30.8391 42.2822 30.8391 40.56C30.8391 39.114 28.7476 37.4135 28.7476 37.4135C26.8886 35.5425 25.7051 34.4795 25.7051 33.5443C25.7051 32.6091 26.5926 31.7795 29.0857 30.1426C31.5572 28.5273 33.0152 27.8893 33.0152 26.316C33.0152 24.9342 32.318 24.445 28.1982 22.4468ZM25.029 16.1759C25.2403 16.1759 25.4097 16.2822 25.4097 16.41C25.4097 16.5373 25.2403 16.6435 25.029 16.6435C24.8182 16.6435 24.6489 16.5373 24.6489 16.41C24.6489 16.2822 24.8182 16.1759 25.0295 16.1759H25.029ZM67.1008 32.6699C67.953 32.1585 68.9757 31.9312 69.9984 31.9312C70.7939 31.9312 71.5893 32.1017 72.2711 32.4426C73.0097 32.7835 73.6347 33.2948 74.1461 33.863L76.021 31.9881C75.2824 31.079 74.3733 30.3972 73.3506 29.9427C72.1006 29.4313 70.7939 29.204 69.4302 29.2609C68.0666 29.3177 66.7598 29.7154 65.6235 30.3404C64.3735 31.079 63.3508 32.1017 62.6122 33.4085C61.8736 34.7721 61.5327 36.2493 61.5327 37.7834C61.5327 39.3174 61.8736 40.7947 62.6122 42.1583C63.294 43.4083 64.3167 44.4878 65.5667 45.2264C66.8735 45.965 68.3507 46.3627 69.828 46.3059C71.0211 46.3059 72.2143 46.0787 73.3506 45.6241C74.3733 45.1696 75.3392 44.431 76.021 43.5787L74.1461 41.7038C73.6347 42.3287 73.0097 42.8401 72.2711 43.181C71.5325 43.5219 70.737 43.6923 69.9416 43.6923C68.9189 43.6923 67.953 43.4651 67.0439 42.9537C66.1917 42.4424 65.5099 41.7606 65.0553 40.9083C64.6008 39.9992 64.3167 38.9197 64.3167 37.897C64.3167 36.8743 64.544 35.8516 65.0553 34.8857C65.5667 33.9198 66.2485 33.1812 67.1008 32.6699ZM64.2031 13.4658H72.1575V20.5679H74.9983V3.97733H72.1575V10.7954H64.2031V3.97733H61.3622V20.5679H64.2031V13.4658ZM78.521 20.5679H81.3618V3.97733H78.521V20.5679ZM93.5206 4.71595C92.4411 4.2046 91.2479 3.97733 90.0548 4.03415H84.9413V20.5679H87.7821V15.7952H90.0548C91.2479 15.7952 92.4411 15.568 93.5206 15.1134C94.4865 14.6589 95.2819 13.9771 95.7933 13.068C96.3046 12.1021 96.5887 11.0226 96.5887 9.94311C96.5887 8.86358 96.3046 7.78406 95.7933 6.81818C95.2819 5.85229 94.4865 5.17049 93.5206 4.71595ZM92.7252 12.3294C92.1002 12.8976 91.1343 13.1817 89.8843 13.1817H87.7821V6.59091H89.8843C91.1343 6.59091 92.1002 6.87499 92.7252 7.44316C93.3502 8.01133 93.6911 8.80677 93.6911 9.88629C93.6911 10.9658 93.407 11.7612 92.7252 12.3294ZM121.475 4.03415L113.804 20.5679H117.043L118.747 16.7611H127.27L128.974 20.5679H132.27L124.599 3.97733H121.475V4.03415ZM119.827 14.318L123.009 7.10226L126.19 14.318H119.827ZM90.9639 30.3404C89.6571 29.6018 88.1798 29.2609 86.6458 29.2609C85.1117 29.2609 83.6913 29.6586 82.3277 30.3404C81.0777 31.079 79.9982 32.1017 79.3164 33.4085C78.5778 34.7721 78.2369 36.2493 78.2369 37.7834C78.2369 39.3174 78.6346 40.7947 79.3164 42.1583C79.9982 43.4083 81.0777 44.4878 82.3277 45.2264C83.6345 45.965 85.1117 46.3059 86.6458 46.3059C88.1798 46.3059 89.6003 45.9082 90.9639 45.2264C92.2138 44.4878 93.2365 43.4651 93.9752 42.1583C94.7138 40.7947 95.0547 39.3174 95.0547 37.7834C95.0547 36.2493 94.657 34.7721 93.9752 33.4085C93.2365 32.1017 92.2138 31.079 90.9639 30.3404ZM91.4184 40.7379C90.9639 41.5901 90.2821 42.3287 89.4866 42.8401C88.6344 43.3514 87.6685 43.5787 86.7026 43.5787C85.7367 43.5787 84.7708 43.2946 83.9186 42.8401C83.0663 42.3287 82.3845 41.6469 81.9868 40.7379C81.5322 39.8288 81.2482 38.8061 81.2482 37.7266C81.2482 36.647 81.4754 35.6812 81.9868 34.7153C82.4413 33.863 83.1231 33.1244 83.9186 32.613C84.7708 32.1017 85.7367 31.8744 86.7026 31.8744C87.6685 31.8744 88.6344 32.1585 89.4866 32.613C90.3389 33.1244 91.0207 33.8062 91.4184 34.7153C91.8729 35.6243 92.157 36.647 92.157 37.7266C92.157 38.8061 91.8729 39.8288 91.4184 40.7379ZM188.007 29.4881V32.1017H193.177V46.0787H196.075V32.1017H201.245V29.4881H188.007ZM183.405 40.681L174.826 29.4881H172.439V46.0787H175.337V34.8857L183.916 46.0787H186.303V29.4881H183.405V40.681ZM111.702 29.4881L106.873 38.2947L101.93 29.4881H98.3501V46.0787H101.418V34.6016L106.816 44.1469L112.327 34.4312V46.0218H115.395V29.4313H111.702V29.4881ZM127.383 30.1699C126.304 29.6586 125.054 29.4313 123.861 29.4881H118.69V46.0787H121.588V41.306H123.861C125.054 41.306 126.304 41.0788 127.383 40.6242C128.349 40.1697 129.145 39.4879 129.713 38.5788C130.224 37.6129 130.508 36.5334 130.508 35.4539C130.508 34.3744 130.224 33.2948 129.713 32.329C129.145 31.3631 128.349 30.6245 127.383 30.1699ZM126.588 37.8402C125.963 38.4084 124.997 38.6925 123.69 38.6925H121.531V32.1017H123.69C124.94 32.1017 125.906 32.3858 126.588 32.9539C127.213 33.5221 127.554 34.3176 127.554 35.3971C127.611 36.4198 127.27 37.272 126.588 37.8402ZM108.35 16.7611L110.054 20.5679H113.35L105.679 3.97733H102.555L94.941 20.5679H98.1796L99.8841 16.7611H108.35ZM104.145 7.10226L107.327 14.318H100.964L104.145 7.10226ZM136.076 29.4881H133.179V46.0787H144.201V43.4651H136.076V29.4881ZM146.588 46.0218H149.485V29.4313H146.588V46.0218ZM159.371 29.4881L151.701 46.0787H154.94L156.644 42.2719H165.167L166.871 46.0787H170.167L162.496 29.4881H159.371ZM157.724 39.8288L160.905 32.613L164.087 39.8288H157.724Z" fill="white"/>
</svg>
